<svg xmlns="http://www.w3.org/2000/svg" viewBox="0 0 636.79 760.69"><defs><style>.cls-1{fill:#fff;fill-rule:evenodd;}</style></defs><title>资源 2</title><g id="图层_2" data-name="图层 2"><g id="图层_1-2" data-name="图层 1"><path class="cls-1" d="M564.57,497.82Q533,452.57,533,395.88q0-51.66,29.71-94.63,16-23.31,52.12-53.94-23.78-29.25-47.55-45.71-43-29.71-97.37-29.71-32.45,0-79.08,15.55Q346.06,203,325.49,203q-15.55,0-63.08-13.71-48-13.72-80.92-13.71-78.63,0-129.83,65.83Q0,308.12,0,412.35,0,523,67.2,642.29q68.11,118.39,137.6,118.4,23.31,0,60.34-15.55,37-15.07,64.92-15.08,29.71,0,69,14.63,41.59,14.61,64,14.62,58.51,0,117.48-89.6,38.4-57.14,56.23-114.28-40.68-12.35-72.22-57.6Z"/><path class="cls-1" d="M409.13,144.45q28.8-28.8,42.52-63.08Q464.9,47.08,464.9,19.2c0-1.22-.07-2.74-.23-4.57s-.22-3.35-.22-4.57a43.27,43.27,0,0,1-1.14-5,43.22,43.22,0,0,0-1.15-5Q381.71,18.75,347.88,67.66,313.6,117,312.22,185.15q30.63-2.74,47.54-7.77,24.69-8.23,49.37-32.92Z"/></g></g></svg>