<svg id="图层_1" data-name="图层 1" xmlns="http://www.w3.org/2000/svg" viewBox="0 0 636.79 760.69"><defs><style>.cls-1{fill-rule:evenodd;}</style></defs><title>apple22</title><path class="cls-1" d="M1206.57,658.82Q1175,613.57,1175,556.88q0-51.66,29.71-94.63,16-23.31,52.12-53.94-23.78-29.25-47.55-45.71-43-29.71-97.37-29.71-32.45,0-79.08,15.55Q988.06,364,967.49,364q-15.55,0-63.08-13.71-48-13.72-80.92-13.71-78.63,0-129.83,65.83Q642,469.12,642,573.35,642,684,709.2,803.29q68.11,118.39,137.6,118.4,23.31,0,60.34-15.55,37-15.07,64.92-15.08,29.71,0,69,14.63,41.59,14.61,64,14.62,58.51,0,117.48-89.6,38.4-57.14,56.23-114.28-40.68-12.35-72.22-57.6Z" transform="translate(-642 -161)"/><path class="cls-1" d="M1051.13,305.45q28.8-28.8,42.52-63.08,13.25-34.29,13.25-62.18c0-1.22-.07-2.74-.23-4.57s-.22-3.35-.22-4.57a43.27,43.27,0,0,1-1.14-5,43.22,43.22,0,0,0-1.15-5q-80.45,18.75-114.28,67.66Q955.6,278,954.22,346.15q30.63-2.74,47.54-7.77,24.69-8.23,49.37-32.92Z" transform="translate(-642 -161)"/></svg>