<svg id="图层_1" data-name="图层 1" xmlns="http://www.w3.org/2000/svg" viewBox="0 0 612.82 716.29"><defs><style>.cls-1{fill-rule:evenodd;}</style></defs><title>安卓</title><path class="cls-1" d="M1222.25,407.46c-24.07,0-43.58,19.82-43.58,44.26v173c0,24.45,19.51,44.26,43.58,44.26s43.58-19.82,43.58-44.26v-173c0-24.44-19.51-44.26-43.58-44.26Zm-525.66,0c-24.07,0-43.58,19.82-43.58,44.26v173c0,24.45,19.51,44.26,43.58,44.26s43.58-19.82,43.58-44.26v-173c0-24.44-19.51-44.26-43.58-44.26Zm69.81,1.34v316a34,34,0,0,0,34,34H839.2V855c0,24.45,19.51,44.26,43.58,44.26s43.58-19.82,43.58-44.26V758.79h67.83V855c0,24.45,19.51,44.26,43.58,44.26s43.58-19.82,43.58-44.26V758.79h38.82a34,34,0,0,0,34-34v-316H766.39ZM1051.33,245l35.82-52c2.13-3.09,1.6-7.15-1.18-9.06s-6.76-1-8.88,2.13l-37.21,54a222.71,222.71,0,0,0-160.93,0l-37.21-54c-2.13-3.09-6.11-4-8.89-2.13s-3.31,6-1.18,9.06l35.82,52c-57,26.49-96.89,76.83-102,135.59H1153.3c-5.08-58.76-45-109.1-102-135.59ZM877.61,327a21.45,21.45,0,1,1,21.45-21.46A21.45,21.45,0,0,1,877.61,327Zm166.28,0a21.45,21.45,0,1,1,21.46-21.46A21.45,21.45,0,0,1,1043.89,327Z" transform="translate(-653 -183)"/></svg>