<svg xmlns="http://www.w3.org/2000/svg" viewBox="0 0 612.82 716.29"><defs><style>.cls-1{fill:#fff;fill-rule:evenodd;}</style></defs><title>资源 1</title><g id="图层_2" data-name="图层 2"><g id="图层_1-2" data-name="图层 1"><path class="cls-1" d="M569.25,224.46c-24.07,0-43.58,19.82-43.58,44.26v173c0,24.45,19.51,44.26,43.58,44.26s43.58-19.82,43.58-44.26v-173c0-24.44-19.51-44.26-43.58-44.26Zm-525.66,0C19.51,224.46,0,244.28,0,268.72v173c0,24.45,19.51,44.26,43.58,44.26s43.58-19.82,43.58-44.26v-173c0-24.44-19.51-44.26-43.58-44.26Zm69.81,1.34v316a34,34,0,0,0,34,34H186.2V672c0,24.45,19.51,44.26,43.58,44.26s43.58-19.82,43.58-44.26V575.79h67.83V672c0,24.45,19.51,44.26,43.58,44.26s43.58-19.82,43.58-44.26V575.79h38.82a34,34,0,0,0,34-34v-316H113.39ZM398.33,62l35.82-52C436.28,7,435.75,2.9,433,1s-6.76-1-8.88,2.13l-37.21,54a222.71,222.71,0,0,0-160.93,0l-37.21-54c-2.13-3.09-6.11-4-8.89-2.13s-3.31,6-1.18,9.06L214.5,62c-57,26.49-96.89,76.83-102,135.59H500.3c-5.08-58.76-45-109.1-102-135.59ZM224.61,144a21.45,21.45,0,1,1,21.45-21.46A21.45,21.45,0,0,1,224.61,144Zm166.28,0a21.45,21.45,0,1,1,21.46-21.46A21.45,21.45,0,0,1,390.89,144Z"/></g></g></svg>